REM DIRINDEX 1\2,1\3
REM DIRNAME folder01,folder02,folder03
TITLE ""
FILE "CD2Track11.mp3" MP3
  TRACK 01 AUDIO
    TITLE "0:"
    INDEX 01 00:00:00
  TRACK 02 AUDIO
    TITLE "2:cjc102_2717"
    INDEX 01 00:00:25
  TRACK 03 AUDIO
    TITLE "0:"
    INDEX 01 00:00:72
  TRACK 04 AUDIO
    TITLE "3:cjc102_2718"
    INDEX 01 00:01:26
  TRACK 05 AUDIO
    TITLE "0:"
    INDEX 01 00:02:63
  TRACK 06 AUDIO
    TITLE "3:cjc102_2719"
    INDEX 01 00:03:21
  TRACK 07 AUDIO
    TITLE "0:"
    INDEX 01 00:07:11
  TRACK 08 AUDIO
    TITLE "2:cjc102_2720"
    INDEX 01 00:07:17
  TRACK 09 AUDIO
    TITLE "0:"
    INDEX 01 00:08:13
  TRACK 10 AUDIO
    TITLE "3:cjc102_2721"
    INDEX 01 00:09:26
  TRACK 11 AUDIO
    TITLE "0:"
    INDEX 01 00:10:23
  TRACK 12 AUDIO
    TITLE "2:cjc102_2722"
    INDEX 01 00:10:37
  TRACK 13 AUDIO
    TITLE "0:"
    INDEX 01 00:11:37
  TRACK 14 AUDIO
    TITLE "3:cjc102_2723"
    INDEX 01 00:12:36
  TRACK 15 AUDIO
    TITLE "0:"
    INDEX 01 00:13:22
  TRACK 16 AUDIO
    TITLE "2:cjc102_2724"
    INDEX 01 00:13:65
  TRACK 17 AUDIO
    TITLE "0:"
    INDEX 01 00:14:72
  TRACK 18 AUDIO
    TITLE "3:cjc102_2725"
    INDEX 01 00:15:74
  TRACK 19 AUDIO
    TITLE "0:"
    INDEX 01 00:16:73
  TRACK 20 AUDIO
    TITLE "2:cjc102_2726"
    INDEX 01 00:17:16
  TRACK 21 AUDIO
    TITLE "0:"
    INDEX 01 00:18:19
  TRACK 22 AUDIO
    TITLE "3:cjc102_2727"
    INDEX 01 00:18:74
  TRACK 23 AUDIO
    TITLE "0:"
    INDEX 01 00:19:69
  TRACK 24 AUDIO
    TITLE "2:cjc102_2728"
    INDEX 01 00:19:73
  TRACK 25 AUDIO
    TITLE "0:"
    INDEX 01 00:20:73
  TRACK 26 AUDIO
    TITLE "3:cjc102_2729"
    INDEX 01 00:21:51
  TRACK 27 AUDIO
    TITLE "0:"
    INDEX 01 00:22:30
  TRACK 28 AUDIO
    TITLE "2:cjc102_2730"
    INDEX 01 00:22:64
  TRACK 29 AUDIO
    TITLE "0:"
    INDEX 01 00:23:59
  TRACK 30 AUDIO
    TITLE "3:cjc102_2731"
    INDEX 01 00:24:49
  TRACK 31 AUDIO
    TITLE "0:"
    INDEX 01 00:25:46
  TRACK 32 AUDIO
    TITLE "2:cjc102_2732"
    INDEX 01 00:25:70
  TRACK 33 AUDIO
    TITLE "0:"
    INDEX 01 00:27:02
  TRACK 34 AUDIO
    TITLE "3:cjc102_2733"
    INDEX 01 00:27:71
  TRACK 35 AUDIO
    TITLE "0:"
    INDEX 01 00:28:66
  TRACK 36 AUDIO
    TITLE "2:cjc102_2734"
    INDEX 01 00:29:19
  TRACK 37 AUDIO
    TITLE "0:"
    INDEX 01 00:30:34
  TRACK 38 AUDIO
    TITLE "3:cjc102_2735"
    INDEX 01 00:31:24
  TRACK 39 AUDIO
    TITLE "0:"
    INDEX 01 00:32:19
  TRACK 40 AUDIO
    TITLE "2:cjc102_2736"
    INDEX 01 00:32:68
  TRACK 41 AUDIO
    TITLE "0:"
    INDEX 01 00:34:12
  TRACK 42 AUDIO
    TITLE "3:cjc102_2737"
    INDEX 01 00:35:10
  TRACK 43 AUDIO
    TITLE "0:"
    INDEX 01 00:36:01
  TRACK 44 AUDIO
    TITLE "2:cjc102_2738"
    INDEX 01 00:36:72
  TRACK 45 AUDIO
    TITLE "0:"
    INDEX 01 00:38:12
  TRACK 46 AUDIO
    TITLE "3:cjc102_2739"
    INDEX 01 00:39:15
  TRACK 47 AUDIO
    TITLE "0:"
    INDEX 01 00:40:09
  TRACK 48 AUDIO
    TITLE "2:cjc102_2740"
    INDEX 01 00:40:32
  TRACK 49 AUDIO
    TITLE "0:"
    INDEX 01 00:41:40
  TRACK 50 AUDIO
    TITLE "3:cjc102_2741"
    INDEX 01 00:42:37
  TRACK 51 AUDIO
    TITLE "0:"
    INDEX 01 00:43:52
  TRACK 52 AUDIO
    TITLE "2:cjc102_2742"
    INDEX 01 00:43:56
  TRACK 53 AUDIO
    TITLE "0:"
    INDEX 01 00:44:67
  TRACK 54 AUDIO
    TITLE "3:cjc102_2743"
    INDEX 01 00:45:63
  TRACK 55 AUDIO
    TITLE "0:"
    INDEX 01 00:47:01
  TRACK 56 AUDIO
    TITLE "2:cjc102_2744"
    INDEX 01 00:47:46
  TRACK 57 AUDIO
    TITLE "0:"
    INDEX 01 00:48:53
  TRACK 58 AUDIO
    TITLE "3:cjc102_2745"
    INDEX 01 00:50:13
  TRACK 59 AUDIO
    TITLE "0:"
    INDEX 01 00:51:34
  TRACK 60 AUDIO
    TITLE "2:cjc102_2746"
    INDEX 01 00:51:62
  TRACK 61 AUDIO
    TITLE "0:"
    INDEX 01 00:52:61
  TRACK 62 AUDIO
    TITLE "3:cjc102_2747"
    INDEX 01 00:53:60
  TRACK 63 AUDIO
    TITLE "0:"
    INDEX 01 00:55:04
  TRACK 64 AUDIO
    TITLE "2:cjc102_2748"
    INDEX 01 00:55:14
  TRACK 65 AUDIO
    TITLE "0:"
    INDEX 01 00:56:24
  TRACK 66 AUDIO
    TITLE "3:cjc102_2749"
    INDEX 01 00:57:37
  TRACK 67 AUDIO
    TITLE "0:"
    INDEX 01 00:58:46
  TRACK 68 AUDIO
    TITLE "2:cjc102_2750"
    INDEX 01 00:58:71
  TRACK 69 AUDIO
    TITLE "0:"
    INDEX 01 00:59:73
  TRACK 70 AUDIO
    TITLE "2:cjc102_2751"
    INDEX 01 01:00:41
  TRACK 71 AUDIO
    TITLE "0:"
    INDEX 01 01:01:48
  TRACK 72 AUDIO
    TITLE "3:cjc102_2752"
    INDEX 01 01:02:65
  TRACK 73 AUDIO
    TITLE "0:"
    INDEX 01 01:03:69
  TRACK 74 AUDIO
    TITLE "2:cjc102_2753"
    INDEX 01 01:03:73
  TRACK 75 AUDIO
    TITLE "0:"
    INDEX 01 01:05:01
  TRACK 76 AUDIO
    TITLE "2:cjc102_2754"
    INDEX 01 01:05:40
  TRACK 77 AUDIO
    TITLE "0:"
    INDEX 01 01:06:63
  TRACK 78 AUDIO
    TITLE "3:cjc102_2755"
    INDEX 01 01:07:29
  TRACK 79 AUDIO
    TITLE "0:"
    INDEX 01 01:08:50
  TRACK 80 AUDIO
    TITLE "2:cjc102_2756"
    INDEX 01 01:08:66
  TRACK 81 AUDIO
    TITLE "0:"
    INDEX 01 01:10:06
  TRACK 82 AUDIO
    TITLE "2:cjc102_2757"
    INDEX 01 01:10:45
  TRACK 83 AUDIO
    TITLE "0:"
    INDEX 01 01:11:64
  TRACK 84 AUDIO
    TITLE "3:cjc102_2758"
    INDEX 01 01:12:32
  TRACK 85 AUDIO
    TITLE "0:"
    INDEX 01 01:13:57
  TRACK 86 AUDIO
    TITLE "2:cjc102_2759"
    INDEX 01 01:13:59
  TRACK 87 AUDIO
    TITLE "0:"
    INDEX 01 01:14:70
  TRACK 88 AUDIO
    TITLE "2:cjc102_2760"
    INDEX 01 01:15:27
  TRACK 89 AUDIO
    TITLE "0:"
    INDEX 01 01:16:42
  TRACK 90 AUDIO
    TITLE "3:cjc102_2761"
    INDEX 01 01:17:06
  TRACK 91 AUDIO
    TITLE "0:"
    INDEX 01 01:18:27
  TRACK 92 AUDIO
    TITLE "2:cjc102_2762"
    INDEX 01 01:18:35
  TRACK 93 AUDIO
    TITLE "0:"
    INDEX 01 01:21:25
  TRACK 94 AUDIO
    TITLE "3:cjc102_2763"
    INDEX 01 01:22:46
  TRACK 95 AUDIO
    TITLE "0:"
    INDEX 01 01:23:58
  TRACK 96 AUDIO
    TITLE "2:cjc102_2764"
    INDEX 01 01:24:24
  TRACK 97 AUDIO
    TITLE "0:"
    INDEX 01 01:27:06
  TRACK 98 AUDIO
    TITLE "3:cjc102_2765"
    INDEX 01 01:28:31
  TRACK 99 AUDIO
    TITLE "0:"
    INDEX 01 01:29:43
  TRACK 100 AUDIO
    TITLE "2:cjc102_2766"
    INDEX 01 01:29:45
  TRACK 101 AUDIO
    TITLE "0:"
    INDEX 01 01:30:34
  TRACK 102 AUDIO
    TITLE "3:cjc102_2767"
    INDEX 01 01:31:45
  TRACK 103 AUDIO
    TITLE "0:"
    INDEX 01 01:32:59
  TRACK 104 AUDIO
    TITLE "2:cjc102_2768"
    INDEX 01 01:32:62
  TRACK 105 AUDIO
    TITLE "0:"
    INDEX 01 01:33:58
  TRACK 106 AUDIO
    TITLE "3:cjc102_2769"
    INDEX 01 01:35:06
  TRACK 107 AUDIO
    TITLE "0:"
    INDEX 01 01:36:31
  TRACK 108 AUDIO
    TITLE "2:cjc102_2770"
    INDEX 01 01:36:45
  TRACK 109 AUDIO
    TITLE "0:"
    INDEX 01 01:37:58
  TRACK 110 AUDIO
    TITLE "3:cjc102_2771"
    INDEX 01 01:38:65
  TRACK 111 AUDIO
    TITLE "0:"
    INDEX 01 01:40:19
  TRACK 112 AUDIO
    TITLE "2:cjc102_2772"
    INDEX 01 01:40:50
  TRACK 113 AUDIO
    TITLE "0:"
    INDEX 01 01:41:61
  TRACK 114 AUDIO
    TITLE "3:cjc102_2773"
    INDEX 01 01:42:61
  TRACK 115 AUDIO
    TITLE "0:"
    INDEX 01 01:44:07
  TRACK 116 AUDIO
    TITLE "2:cjc102_2774"
    INDEX 01 01:44:32
  TRACK 117 AUDIO
    TITLE "0:"
    INDEX 01 01:45:44
  TRACK 118 AUDIO
    TITLE "3:cjc102_2775"
    INDEX 01 01:46:31
  TRACK 119 AUDIO
    TITLE "0:"
    INDEX 01 01:47:64
  TRACK 120 AUDIO
    TITLE "2:cjc102_2776"
    INDEX 01 01:48:24
  TRACK 121 AUDIO
    TITLE "0:"
    INDEX 01 01:49:32
